<?xml version="1.0" encoding="utf-8"?>
<!-- Generator: Adobe Illustrator 22.0.0, SVG Export Plug-In . SVG Version: 6.00 Build 0)  -->
<svg version="1.1" id="Layer_1" xmlns="http://www.w3.org/2000/svg" xmlns:xlink="http://www.w3.org/1999/xlink" width="169.215px" height="109.25px" x="0px" y="0px"
	 viewBox="0 0 184.4 109.2" style="enable-background:new 0 0 184.4 109.2;" xml:space="preserve">
<style type="text/css">
	.st0{fill:none;}
	.st1{fill:#FFFFFF;}
</style>
<g>
	<rect class="st0" width="184.4" height="109.2"/>
	<path class="st1" d="M60.7,54c-3.3,2.6-6.6,4.2-9.3,4.2c-2.9,0-5.7-1.7-8.4-4.7c10.8-3.3,18.2-12.8,18.2-24.3
		c0-14.4-11.7-25.5-26.8-25.5c-15.1,0-26.8,11-26.8,25.5c0,14.4,11.6,25.6,26.7,25.6c4,6.8,9.7,10.8,16.1,10.8
		c4.7,0,9.8-2.1,13.7-5.6L60.7,54z M35.4,40.9v4.9c0,0.5-0.3,0.8-0.7,1c-0.1,0-0.1,0-0.2,0.1c0,0,0,0,0,0l0,0c-0.6,0-1-0.4-1-1l0,0
		V41c-2,1.4-6.6,3.9-12.6,3.5c0.4-1.4,6-3.9,8.1-4.6c-1.9,0.1-9.9-1.5-14-4.7c1.9-0.7,10.1-1,14,0.7c-1.4-0.8-7.9-6.2-10.8-15
		c1.7,0.8,10.2,5.5,13.1,11.2c0,0-2.7-9,3.1-20.8C40.1,23.1,37.4,32,37.4,32c3-5.8,11.5-10.4,13.1-11.2c-2.9,8.7-9.4,14.1-10.7,14.9
		c4-1.6,12.2-1.3,14-0.7c-4.1,3.2-12.1,4.8-14,4.7c2.1,0.7,7.7,3.3,8.1,4.6C42,44.8,37.3,42.2,35.4,40.9z"/>
	<g>
		<path class="st1" d="M85.1,44c0,6.8-4,10.7-10.5,10.7c-4.1,0-7.5-1.8-10-4.9l2.7-4.4c2.2,2.4,4.9,3.7,7.2,3.7c3,0,4.8-1.9,4.8-5.4
			V25.7H67.6v-5.1h17.5V44z M108.4,51.3c-1.8,2.3-4.8,3.4-8.5,3.4c-5.6,0-9-3.4-9-8c0-4.7,3.5-7.7,9.7-7.7h7.8v-0.8
			c0-3.2-2.1-5.2-6.1-5.2c-2.5,0-5,0.9-7.6,2.6l-2.3-3.9c3.6-2.1,6.2-3.2,11.1-3.2c6.6,0,10.4,3.4,10.4,9l0,16.9h-5.5L108.4,51.3
			L108.4,51.3z M108.3,45.4V43h-7c-3.6,0-5.3,1-5.3,3.4c0,2.3,1.9,3.8,5,3.8C105,50.3,108,48.2,108.3,45.4z M145.9,38.5v16h-5.6V40
			c0-3.9-2.3-6.2-6.2-6.2c-4.3,0-6.9,3-7.3,7v13.7h-5.6V28.7h5.6v4.9c1.8-3.6,5.1-5.1,9.5-5.1C142.3,28.5,145.9,32.3,145.9,38.5z
			 M176,43.7h-19.4c0.9,4,3.9,6.4,8,6.4c2.8,0,5.4-1.1,7.3-3l3,3.1c-2.5,2.8-6.2,4.4-10.6,4.4c-7.9,0-13.2-5.3-13.2-13
			c0-7.8,5.4-13.1,13-13.1C173,28.5,176.7,34.4,176,43.7L176,43.7z M171.2,39.7c-0.2-4.2-3-6.7-7.2-6.7c-4.1,0-6.9,2.6-7.5,6.7
			H171.2z"/>
	</g>
	<g>
		<path class="st1" d="M53.5,103c-1.1,1-2.3,1.5-3.5,1.5c-1.6,0-3-1-4.3-2.7h-0.2c-4,0-7.2-3.1-7.2-6.9c0-3.9,3.2-6.9,7.2-6.9
			c4,0,7.2,3,7.2,6.9c0,3.2-2.2,5.9-5.3,6.7c0.9,1,1.9,1.5,2.8,1.5c0.8,0,1.7-0.5,2.6-1.2C52.8,101.8,53.5,103,53.5,103z
			 M45.6,100.2c3.1,0,5.6-2.4,5.6-5.4c0-3-2.5-5.4-5.6-5.4c-3.1,0-5.6,2.4-5.6,5.4C40,97.8,42.5,100.2,45.6,100.2z M64.6,101.6h-1.5
			v-2.3c-0.7,1.6-2.1,2.4-3.9,2.4c-2.4,0-3.9-1.5-3.9-4v-6.4h1.5v5.9c0,1.8,1.1,2.9,2.9,2.9c2.1,0,3.4-1.6,3.4-3.8v-5.1h1.5
			L64.6,101.6L64.6,101.6z M77.2,97.1h-8.4c0.3,2,1.7,3.3,3.7,3.3c1.3,0,2.4-0.5,3.2-1.3l0.8,0.9c-1,1.1-2.4,1.7-4.1,1.7
			c-3,0-5.1-2.1-5.1-5.2c0-3.1,2.1-5.2,5.1-5.2C75.8,91.3,77.4,93.6,77.2,97.1z M75.9,95.8c-0.1-2-1.4-3.2-3.4-3.2
			c-2,0-3.4,1.3-3.6,3.2H75.9z M81.4,93.6c0.7-1.5,2-2.3,3.7-2.3v1.5c-2.2,0-3.5,1.3-3.7,3.3v5.5h-1.5V91.3h1.5
			C81.4,91.3,81.4,93.6,81.4,93.6z M91,103.1c-0.6,1.6-1.7,2.4-3.1,2.4c-0.9,0-1.5-0.3-2.2-0.8l0.6-1.3c0.5,0.3,0.9,0.5,1.4,0.5
			c0.8,0,1.5-0.5,1.9-1.4l0.4-1l-4.3-10.2h1.6l3.4,8.5l3.3-8.5h1.6C95.7,91.3,91,103.1,91,103.1z M108.7,97.5c0,2.7-1.5,4.2-3.9,4.2
			c-1.5,0-2.8-0.7-3.8-2l0.8-1.3c0.9,1,1.9,1.6,3,1.6c1.5,0,2.3-0.9,2.3-2.6v-8h-4.9V88h6.5L108.7,97.5L108.7,97.5z M118.7,100.1
			c-0.8,1.1-2.1,1.7-3.8,1.7c-2.1,0-3.5-1.4-3.5-3.1c0-1.8,1.4-2.9,3.9-3h3.4V95c0-1.5-0.9-2.4-2.8-2.4c-1.1,0-2.2,0.4-3.3,1.2
			l-0.6-1.1c1.3-0.9,2.4-1.4,4.2-1.4c2.5,0,4,1.3,4,3.6l0,6.8h-1.5L118.7,100.1L118.7,100.1z M118.7,98.1v-1.2h-3.2
			c-1.7,0-2.6,0.5-2.6,1.7c0,1.1,0.9,1.9,2.4,1.9C117,100.4,118.3,99.5,118.7,98.1z M133,95.3v6.4h-1.5v-5.9c0-1.8-1.1-2.9-2.9-2.9
			c-2,0-3.3,1.3-3.5,3.3v5.5h-1.5V91.3h1.5v2.3c0.7-1.6,2.1-2.3,4-2.3C131.6,91.3,133,92.8,133,95.3z M145.3,97.1h-8.4
			c0.3,2,1.7,3.3,3.7,3.3c1.3,0,2.4-0.5,3.2-1.3l0.8,0.9c-1,1.1-2.4,1.7-4.1,1.7c-3,0-5.1-2.1-5.1-5.2c0-3.1,2.1-5.2,5.1-5.2
			C143.8,91.3,145.5,93.6,145.3,97.1L145.3,97.1z M144,95.8c-0.1-2-1.4-3.2-3.4-3.2c-2,0-3.4,1.3-3.6,3.2H144z"/>
	</g>
	<path class="st1" d="M4.5,77.2h175.3v1.2H4.5V77.2z"/>
</g>
</svg>
