<?xml version="1.0" encoding="utf-8"?>
<!-- Generator: Adobe Illustrator 16.0.0, SVG Export Plug-In . SVG Version: 6.00 Build 0)  -->
<!DOCTYPE svg PUBLIC "-//W3C//DTD SVG 1.1//EN" "http://www.w3.org/Graphics/SVG/1.1/DTD/svg11.dtd">
<svg version="1.1" id="Layer_1" xmlns="http://www.w3.org/2000/svg" xmlns:xlink="http://www.w3.org/1999/xlink" x="0px" y="0px"
	 width="52px" height="52px" viewBox="0 0 52 52" enable-background="new 0 0 52 52" xml:space="preserve">
<path fill="#FFFFFF" d="M46.417,41.911c-2.727,2.134-5.451,3.44-7.645,3.44c-2.373,0-4.686-1.422-6.934-3.85
	c8.828-2.729,14.932-10.493,14.932-19.978c0-11.853-9.598-20.921-21.984-20.921c-12.389,0-21.988,9.01-21.988,20.921
	c0,11.855,9.541,20.984,21.93,21.04c3.316,5.572,7.998,8.832,13.215,8.832c3.85,0,8.061-1.717,11.26-4.561L46.417,41.911z
	 M25.61,31.132v4.017c0,0.382-0.268,0.688-0.615,0.783c-0.059,0.028-0.117,0.042-0.178,0.042c-0.008,0-0.014-0.003-0.014-0.003
	l-0.018,0.003c-0.455,0-0.826-0.367-0.826-0.825v-3.977c-1.641,1.114-5.424,3.175-10.34,2.85c0.348-1.119,4.959-3.23,6.652-3.774
	c-1.568,0.066-8.096-1.249-11.488-3.871c1.57-0.544,8.322-0.833,11.525,0.545c-1.158-0.671-6.469-5.119-8.869-12.285
	c1.377,0.637,8.352,4.477,10.783,9.214c0,0-2.242-7.394,2.531-17.117c4.73,9.757,2.523,17.117,2.523,17.117
	c2.434-4.737,9.41-8.577,10.785-9.214c-2.371,7.166-7.711,11.614-8.799,12.253c3.264-1.312,10.018-1.088,11.521-0.546
	c-3.395,2.594-9.953,3.937-11.461,3.873c1.729,0.605,6.34,2.718,6.688,3.806C31.048,34.35,27.177,32.215,25.61,31.132z"/>
</svg>
