<?xml version="1.0" encoding="utf-8"?>
<!-- Generator: Adobe Illustrator 16.0.0, SVG Export Plug-In . SVG Version: 6.00 Build 0)  -->
<!DOCTYPE svg PUBLIC "-//W3C//DTD SVG 1.1//EN" "http://www.w3.org/Graphics/SVG/1.1/DTD/svg11.dtd">
<svg version="1.1" id="Layer_1" xmlns="http://www.w3.org/2000/svg" xmlns:xlink="http://www.w3.org/1999/xlink" x="0px" y="0px"
	 width="208px" height="123.25px" viewBox="0 0 208 123.25" enable-background="new 0 0 208 123.25" xml:space="preserve">
<g>
	<g>
		<path fill="#FFFFFF" d="M68.154,60.95c-3.784,2.961-7.567,4.773-10.61,4.773c-3.291,0-6.5-1.975-9.623-5.346
			c12.254-3.785,20.727-14.562,20.727-27.725c0-16.451-13.326-29.037-30.516-29.037c-17.192,0-30.519,12.503-30.519,29.037
			c0,16.451,13.243,29.123,30.436,29.201c4.606,7.734,11.104,12.258,18.343,12.258c5.346,0,11.188-2.385,15.629-6.332L68.154,60.95z
			 M39.275,45.987v5.576c0,0.529-0.368,0.955-0.854,1.086c-0.079,0.035-0.163,0.059-0.248,0.059c-0.008,0-0.014-0.006-0.014-0.006
			l-0.027,0.006c-0.632,0-1.145-0.512-1.145-1.145v-5.521c-2.275,1.545-7.529,4.404-14.354,3.955
			c0.486-1.553,6.88-4.484,9.234-5.238c-2.176,0.09-11.235-1.732-15.941-5.373c2.177-0.756,11.546-1.156,15.99,0.756
			c-1.603-0.933-8.974-7.105-12.306-17.053c1.912,0.888,11.593,6.217,14.966,12.788c0,0-3.11-10.258,3.513-23.758
			c6.568,13.543,3.503,23.758,3.503,23.758c3.377-6.571,13.059-11.9,14.967-12.788c-3.287,9.947-10.699,16.12-12.211,17.009
			c4.53-1.821,13.901-1.513,15.987-0.756c-4.707,3.597-13.809,5.462-15.9,5.372c2.398,0.844,8.797,3.775,9.281,5.283
			C46.823,50.452,41.452,47.491,39.275,45.987z"/>
	</g>
</g>
<g>
	<path fill="#FFFFFF" d="M95.921,49.532c0,7.775-4.577,12.187-12.021,12.187c-4.633,0-8.493-2.041-11.36-5.57l3.088-4.963
		c2.537,2.757,5.57,4.246,8.217,4.246c3.475,0,5.515-2.151,5.515-6.121V28.687H76.014v-5.845h19.907V49.532z"/>
	<path fill="#FFFFFF" d="M122.447,57.858c-2.095,2.592-5.459,3.86-9.705,3.86c-6.342,0-10.312-3.916-10.312-9.099
		c0-5.349,4.025-8.768,11.084-8.823h8.879v-0.882c0-3.695-2.371-5.9-7.004-5.9c-2.812,0-5.734,0.993-8.657,2.978l-2.592-4.412
		c4.08-2.426,7.059-3.694,12.628-3.694c7.555,0,11.801,3.86,11.856,10.312l0.055,19.246h-6.231V57.858z M122.393,51.131v-2.702
		h-7.941c-4.136,0-6.065,1.103-6.065,3.915c0,2.647,2.15,4.356,5.68,4.356C118.588,56.7,122.062,54.329,122.393,51.131z"/>
	<path fill="#FFFFFF" d="M165.242,43.19v18.253h-6.341V44.955c0-4.412-2.647-7.114-7.059-7.114
		c-4.854,0.055-7.886,3.419-8.327,7.996v15.606h-6.342V32.105h6.342v5.625c2.096-4.081,5.845-5.845,10.809-5.845
		C161.162,31.885,165.242,36.187,165.242,43.19z"/>
	<path fill="#FFFFFF" d="M199.546,49.201h-22.168c0.992,4.522,4.467,7.334,9.099,7.334c3.198,0,6.121-1.213,8.271-3.419l3.364,3.584
		c-2.867,3.144-7.059,4.963-12.132,4.963c-9.044,0-15-6.011-15-14.834c0-8.878,6.121-14.89,14.834-14.944
		C196.127,31.885,200.318,38.613,199.546,49.201z M194.031,44.568c-0.221-4.743-3.363-7.61-8.161-7.61
		c-4.632,0-7.886,2.922-8.603,7.61H194.031z"/>
</g>
<g>
	<path fill="#FFFFFF" d="M59.942,116.713c-1.204,1.115-2.631,1.717-3.99,1.717c-1.806,0-3.456-1.114-4.904-3.121h-0.179
		c-4.57,0-8.182-3.5-8.182-7.892c0-4.414,3.611-7.847,8.182-7.847c4.548,0,8.159,3.455,8.159,7.847c0,3.679-2.541,6.755-6.041,7.624
		c1.069,1.138,2.117,1.739,3.165,1.739c0.914,0,1.962-0.513,3.01-1.404L59.942,116.713z M50.869,113.593
		c3.478,0,6.331-2.742,6.331-6.176c0-3.433-2.854-6.152-6.331-6.152s-6.376,2.72-6.376,6.152
		C44.493,110.851,47.392,113.593,50.869,113.593z"/>
	<path fill="#FFFFFF" d="M72.61,115.22h-1.738v-2.653c-0.78,1.828-2.341,2.698-4.459,2.72c-2.742,0-4.392-1.738-4.392-4.569v-7.245
		h1.738v6.776c0,2.073,1.227,3.3,3.255,3.3c2.431-0.045,3.857-1.806,3.857-4.303v-5.773h1.738V115.22z"/>
	<path fill="#FFFFFF" d="M86.972,110.026h-9.586c0.312,2.296,1.983,3.745,4.258,3.745c1.449,0,2.72-0.513,3.634-1.471l0.958,1.025
		c-1.114,1.248-2.764,1.961-4.726,1.961c-3.456,0-5.841-2.43-5.841-5.93s2.407-5.93,5.818-5.93
		C85.277,103.405,87.149,106.036,86.972,110.026z M85.411,108.599c-0.111-2.252-1.628-3.679-3.924-3.679
		c-2.229,0-3.835,1.449-4.102,3.679H85.411z"/>
	<path fill="#FFFFFF" d="M91.701,106.08c0.78-1.716,2.229-2.652,4.214-2.675v1.762c-2.475-0.045-4.013,1.493-4.214,3.812v6.242
		h-1.738v-11.748h1.738V106.08z"/>
	<path fill="#FFFFFF" d="M102.628,116.892c-0.736,1.806-1.962,2.742-3.522,2.742c-0.98,0-1.761-0.29-2.475-0.869l0.735-1.449
		c0.535,0.379,1.07,0.558,1.65,0.558c0.914,0,1.672-0.558,2.14-1.65l0.49-1.092l-4.859-11.659h1.828l3.901,9.697l3.723-9.697h1.783
		L102.628,116.892z"/>
	<path fill="#FFFFFF" d="M122.853,110.539c0,3.032-1.672,4.771-4.458,4.771c-1.739,0-3.232-0.824-4.325-2.229l0.892-1.428
		c0.981,1.182,2.207,1.807,3.411,1.807c1.717,0,2.675-1.026,2.675-2.966v-9.162h-5.573v-1.717h7.379V110.539z"/>
	<path fill="#FFFFFF" d="M134.247,113.415c-0.936,1.271-2.43,1.895-4.302,1.895c-2.431,0-3.991-1.561-3.991-3.589
		c0-2.051,1.628-3.344,4.393-3.366h3.856v-0.691c0-1.717-1.07-2.742-3.144-2.742c-1.293,0-2.497,0.491-3.723,1.338l-0.736-1.271
		c1.517-1.003,2.787-1.583,4.793-1.583c2.898,0,4.504,1.538,4.526,4.058l0.021,7.758h-1.694V113.415z M134.226,111.163v-1.404
		h-3.656c-1.962,0-2.987,0.602-2.987,1.895c0,1.294,1.048,2.141,2.697,2.141C132.264,113.793,133.779,112.791,134.226,111.163z"/>
	<path fill="#FFFFFF" d="M150.57,107.975v7.245h-1.739v-6.777c0-2.073-1.248-3.299-3.321-3.299
		c-2.318,0.022-3.745,1.538-3.946,3.768v6.309h-1.738v-11.748h1.738v2.586c0.825-1.784,2.408-2.631,4.548-2.653
		C148.921,103.405,150.57,105.144,150.57,107.975z"/>
	<path fill="#FFFFFF" d="M164.574,110.026h-9.586c0.312,2.296,1.983,3.745,4.258,3.745c1.449,0,2.72-0.513,3.634-1.471l0.958,1.025
		c-1.114,1.248-2.764,1.961-4.726,1.961c-3.456,0-5.841-2.43-5.841-5.93s2.407-5.93,5.818-5.93
		C162.88,103.405,164.752,106.036,164.574,110.026z M163.014,108.599c-0.111-2.252-1.628-3.679-3.924-3.679
		c-2.229,0-3.835,1.449-4.102,3.679H163.014z"/>
</g>
<rect x="4.082" y="87.355" fill="#FFFFFF" width="199.836" height="1.4"/>
</svg>
