<svg xmlns="http://www.w3.org/2000/svg" width="208" height="123.25"><path fill="#FFF" d="M68.154 60.95c-3.784 2.961-7.567 4.773-10.61 4.773-3.291 0-6.5-1.975-9.623-5.346 12.254-3.785 20.727-14.562 20.727-27.725 0-16.451-13.326-29.037-30.516-29.037-17.192 0-30.519 12.503-30.519 29.037 0 16.451 13.243 29.123 30.436 29.201 4.606 7.734 11.104 12.258 18.343 12.258 5.346 0 11.188-2.385 15.629-6.332l-3.867-6.829zM39.275 45.987v5.576c0 .529-.368.955-.854 1.086a.618.618 0 0 1-.248.059c-.008 0-.014-.006-.014-.006l-.027.006a1.145 1.145 0 0 1-1.145-1.145v-5.521c-2.275 1.545-7.529 4.404-14.354 3.955.486-1.553 6.88-4.484 9.234-5.238-2.176.09-11.235-1.732-15.941-5.373 2.177-.756 11.546-1.156 15.99.756-1.603-.933-8.974-7.105-12.306-17.053 1.912.888 11.593 6.217 14.966 12.788 0 0-3.11-10.258 3.513-23.758 6.568 13.543 3.503 23.758 3.503 23.758 3.377-6.571 13.059-11.9 14.967-12.788-3.287 9.947-10.699 16.12-12.211 17.009 4.53-1.821 13.901-1.513 15.987-.756-4.707 3.597-13.809 5.462-15.9 5.372 2.398.844 8.797 3.775 9.281 5.283-6.893.455-12.264-2.506-14.441-4.01z"/><g fill="#FFF"><path d="M95.921 49.532c0 7.775-4.577 12.187-12.021 12.187-4.633 0-8.493-2.041-11.36-5.57l3.088-4.963c2.537 2.757 5.57 4.246 8.217 4.246 3.475 0 5.515-2.151 5.515-6.121V28.687H76.014v-5.845h19.907v26.69zM122.447 57.858c-2.095 2.592-5.459 3.86-9.705 3.86-6.342 0-10.312-3.916-10.312-9.099 0-5.349 4.025-8.768 11.084-8.823h8.879v-.882c0-3.695-2.371-5.9-7.004-5.9-2.812 0-5.734.993-8.657 2.978l-2.592-4.412c4.08-2.426 7.059-3.694 12.628-3.694 7.555 0 11.801 3.86 11.856 10.312l.055 19.246h-6.231v-3.586zm-.054-6.727v-2.702h-7.941c-4.136 0-6.065 1.103-6.065 3.915 0 2.647 2.15 4.356 5.68 4.356 4.521 0 7.995-2.371 8.326-5.569zM165.242 43.19v18.253h-6.341V44.955c0-4.412-2.647-7.114-7.059-7.114-4.854.055-7.886 3.419-8.327 7.996v15.606h-6.342V32.105h6.342v5.625c2.096-4.081 5.845-5.845 10.809-5.845 6.838 0 10.918 4.302 10.918 11.305zM199.546 49.201h-22.168c.992 4.522 4.467 7.334 9.099 7.334 3.198 0 6.121-1.213 8.271-3.419l3.364 3.584c-2.867 3.144-7.059 4.963-12.132 4.963-9.044 0-15-6.011-15-14.834 0-8.878 6.121-14.89 14.834-14.944 10.313 0 14.504 6.728 13.732 17.316zm-5.515-4.633c-.221-4.743-3.363-7.61-8.161-7.61-4.632 0-7.886 2.922-8.603 7.61h16.764z"/></g><g fill="#FFF"><path d="M59.942 116.713c-1.204 1.115-2.631 1.717-3.99 1.717-1.806 0-3.456-1.114-4.904-3.121h-.179c-4.57 0-8.182-3.5-8.182-7.892 0-4.414 3.611-7.847 8.182-7.847 4.548 0 8.159 3.455 8.159 7.847 0 3.679-2.541 6.755-6.041 7.624 1.069 1.138 2.117 1.739 3.165 1.739.914 0 1.962-.513 3.01-1.404l.78 1.337zm-9.073-3.12c3.478 0 6.331-2.742 6.331-6.176 0-3.433-2.854-6.152-6.331-6.152s-6.376 2.72-6.376 6.152c0 3.434 2.899 6.176 6.376 6.176zM72.61 115.22h-1.738v-2.653c-.78 1.828-2.341 2.698-4.459 2.72-2.742 0-4.392-1.738-4.392-4.569v-7.245h1.738v6.776c0 2.073 1.227 3.3 3.255 3.3 2.431-.045 3.857-1.806 3.857-4.303v-5.773h1.738v11.747zM86.972 110.026h-9.586c.312 2.296 1.983 3.745 4.258 3.745 1.449 0 2.72-.513 3.634-1.471l.958 1.025c-1.114 1.248-2.764 1.961-4.726 1.961-3.456 0-5.841-2.43-5.841-5.93s2.407-5.93 5.818-5.93c3.79-.021 5.662 2.61 5.485 6.6zm-1.561-1.427c-.111-2.252-1.628-3.679-3.924-3.679-2.229 0-3.835 1.449-4.102 3.679h8.026zM91.701 106.08c.78-1.716 2.229-2.652 4.214-2.675v1.762c-2.475-.045-4.013 1.493-4.214 3.812v6.242h-1.738v-11.748h1.738v2.607zM102.628 116.892c-.736 1.806-1.962 2.742-3.522 2.742-.98 0-1.761-.29-2.475-.869l.735-1.449c.535.379 1.07.558 1.65.558.914 0 1.672-.558 2.14-1.65l.49-1.092-4.859-11.659h1.828l3.901 9.697 3.723-9.697h1.783l-5.394 13.419zM122.853 110.539c0 3.032-1.672 4.771-4.458 4.771-1.739 0-3.232-.824-4.325-2.229l.892-1.428c.981 1.182 2.207 1.807 3.411 1.807 1.717 0 2.675-1.026 2.675-2.966v-9.162h-5.573v-1.717h7.379v10.924zM134.247 113.415c-.936 1.271-2.43 1.895-4.302 1.895-2.431 0-3.991-1.561-3.991-3.589 0-2.051 1.628-3.344 4.393-3.366h3.856v-.691c0-1.717-1.07-2.742-3.144-2.742-1.293 0-2.497.491-3.723 1.338l-.736-1.271c1.517-1.003 2.787-1.583 4.793-1.583 2.898 0 4.504 1.538 4.526 4.058l.021 7.758h-1.694v-1.807zm-.021-2.252v-1.404h-3.656c-1.962 0-2.987.602-2.987 1.895 0 1.294 1.048 2.141 2.697 2.141 1.984-.002 3.499-1.004 3.946-2.632zM150.57 107.975v7.245h-1.739v-6.777c0-2.073-1.248-3.299-3.321-3.299-2.318.022-3.745 1.538-3.946 3.768v6.309h-1.738v-11.748h1.738v2.586c.825-1.784 2.408-2.631 4.548-2.653 2.809-.001 4.458 1.738 4.458 4.569zM164.574 110.026h-9.586c.312 2.296 1.983 3.745 4.258 3.745 1.449 0 2.72-.513 3.634-1.471l.958 1.025c-1.114 1.248-2.764 1.961-4.726 1.961-3.456 0-5.841-2.43-5.841-5.93s2.407-5.93 5.818-5.93c3.791-.021 5.663 2.61 5.485 6.6zm-1.56-1.427c-.111-2.252-1.628-3.679-3.924-3.679-2.229 0-3.835 1.449-4.102 3.679h8.026z"/></g><path fill="#FFF" d="M4.082 87.355h199.836v1.4H4.082z"/></svg>