<svg id="Layer_1" xmlns="http://www.w3.org/2000/svg" xmlns:xlink="http://www.w3.org/1999/xlink" viewBox="0 0 160 160"><style>.st2{fill:#929497}</style><path fill="#e6e7e8" d="M0 0h160v160H0z"/><defs><path id="SVGID_1_" d="M0 0h160v160H0z"/></defs><clipPath id="SVGID_2_"><use xlink:href="#SVGID_1_" overflow="visible"/></clipPath><g clip-path="url(#SVGID_2_)"><path class="st2" d="M80 97.9c-20.2 0-36.8-16.6-36.8-36.8S59.8 24.3 80 24.3s36.8 16.6 36.8 36.8S100.2 97.9 80 97.9zm0-62.4c-14.2 0-25.7 11.6-25.7 25.7S65.8 87 80 87s25.7-11.6 25.7-25.7S94.2 35.5 80 35.5zM143.3 173.8h-11v-9.2c0-27.4-22.3-49.7-49.7-49.7h-5.1c-27.4 0-49.7 22.3-49.7 49.7v9.2h-11v-9.2c0-33.5 27.2-60.7 60.7-60.7h5.1c33.5 0 60.7 27.2 60.7 60.7v9.2z"/></g></svg>