<?xml version="1.0" encoding="utf-8"?>
<!-- Generator: Adobe Illustrator 22.0.0, SVG Export Plug-In . SVG Version: 6.00 Build 0)  -->
<svg version="1.1" id="Layer_1" xmlns="http://www.w3.org/2000/svg" xmlns:xlink="http://www.w3.org/1999/xlink" x="0px" y="0px"
	 viewBox="0 0 160 160" style="enable-background:new 0 0 160 160;" xml:space="preserve">
<style type="text/css">
	.st0{fill:#E6E7E8;}
	.st1{clip-path:url(#SVGID_2_);}
	.st2{fill:#929497;}
</style>
<g>
	<rect class="st0" width="160" height="160"/>
	<g>
		<defs>
			<rect id="SVGID_1_" width="160" height="160"/>
		</defs>
		<clipPath id="SVGID_2_">
			<use xlink:href="#SVGID_1_"  style="overflow:visible;"/>
		</clipPath>
		<g class="st1">
			<g>
				<path class="st2" d="M80,97.9c-20.2,0-36.8-16.6-36.8-36.8S59.8,24.3,80,24.3s36.8,16.6,36.8,36.8S100.2,97.9,80,97.9z M80,35.5
					c-14.2,0-25.7,11.6-25.7,25.7S65.8,87,80,87s25.7-11.6,25.7-25.7S94.2,35.5,80,35.5z"/>
			</g>
			<g>
				<path class="st2" d="M143.3,173.8h-11v-9.2c0-27.4-22.3-49.7-49.7-49.7h-5.1c-27.4,0-49.7,22.3-49.7,49.7v9.2h-11v-9.2
					c0-33.5,27.2-60.7,60.7-60.7h5.1c33.5,0,60.7,27.2,60.7,60.7V173.8z"/>
			</g>
		</g>
	</g>
</g>
</svg>
