<svg id="Layer_1" xmlns="http://www.w3.org/2000/svg" viewBox="0 0 160 160"><style></style><path fill="#e6e7e8" d="M0 0h160v160H0z"/><path d="M31.1 21.6V152h32.6v-19.6h32.6V152h32.6V21.6H31.1zm26.1 84.8h-13v-13h13v13zm0-19.6h-13v-13h13v13zm0-19.6h-13v-13h13v13zm0-19.5h-13v-13h13v13zm19.5 58.7h-13v-13h13v13zm0-19.6h-13v-13h13v13zm0-19.6h-13v-13h13v13zm0-19.5h-13v-13h13v13zm19.6 58.7h-13v-13h13v13zm0-19.6h-13v-13h13v13zm0-19.6h-13v-13h13v13zm0-19.5h-13v-13h13v13zm19.6 58.7h-13v-13h13v13zm0-19.6h-13v-13h13v13zm0-19.6h-13v-13h13v13zm0-19.5h-13v-13h13v13z" fill="#929497"/></svg>