<svg xmlns="http://www.w3.org/2000/svg" width="52" height="52"><path fill="#FFF" d="M46.417 41.911c-2.727 2.134-5.451 3.44-7.645 3.44-2.373 0-4.686-1.422-6.934-3.85 8.828-2.729 14.932-10.493 14.932-19.978C46.77 9.67 37.172.602 24.786.602c-12.389 0-21.988 9.01-21.988 20.921 0 11.855 9.541 20.984 21.93 21.04 3.316 5.572 7.998 8.832 13.215 8.832 3.85 0 8.061-1.717 11.26-4.561l-2.786-4.923zM25.61 31.132v4.017a.818.818 0 0 1-.615.783.407.407 0 0 1-.178.042c-.008 0-.014-.003-.014-.003l-.018.003a.825.825 0 0 1-.826-.825v-3.977c-1.641 1.114-5.424 3.175-10.34 2.85.348-1.119 4.959-3.23 6.652-3.774-1.568.066-8.096-1.249-11.488-3.871 1.57-.544 8.322-.833 11.525.545-1.158-.671-6.469-5.119-8.869-12.285 1.377.637 8.352 4.477 10.783 9.214 0 0-2.242-7.394 2.531-17.117 4.73 9.757 2.523 17.117 2.523 17.117 2.434-4.737 9.41-8.577 10.785-9.214-2.371 7.166-7.711 11.614-8.799 12.253 3.264-1.312 10.018-1.088 11.521-.546-3.395 2.594-9.953 3.937-11.461 3.873 1.729.605 6.34 2.718 6.688 3.806-4.962.327-8.833-1.808-10.4-2.891z"/></svg>